<?xml version="1.0" standalone="no"?>
<!DOCTYPE svg PUBLIC "-//W3C//DTD SVG 20010904//EN"
 "http://www.w3.org/TR/2001/REC-SVG-20010904/DTD/svg10.dtd">
<svg version="1.0" xmlns="http://www.w3.org/2000/svg"
 width="1032.000000pt" height="1032.000000pt" viewBox="0 0 1032.000000 1032.000000"
 preserveAspectRatio="xMidYMid meet">
<metadata>
Created by potrace 1.11, written by Peter Selinger 2001-2013
</metadata>
<g transform="translate(0.000000,1032.000000) scale(0.100000,-0.100000)"
fill="#000000" stroke="none">
<path d="M5070 10314 c-14 -3 -50 -12 -80 -21 -30 -9 -57 -17 -60 -17 -14 -2
-140 -81 -140 -88 0 -4 -4 -8 -10 -8 -20 0 -140 -142 -140 -166 0 -8 -4 -14
-9 -14 -8 0 -21 -30 -26 -60 -1 -8 -10 -30 -19 -47 -9 -18 -16 -36 -15 -40 1
-4 0 -10 -1 -13 -1 -3 -3 -28 -4 -56 -2 -28 -6 -56 -10 -62 -3 -6 -2 -13 3
-17 10 -5 8 -36 -4 -54 -3 -5 -1 -12 5 -16 6 -4 7 -11 4 -17 -10 -15 -11 -68
-2 -68 4 0 3 -13 -2 -30 -5 -16 -6 -30 -2 -30 9 0 8 -53 -2 -68 -3 -6 -2 -13
4 -17 6 -4 8 -11 4 -16 -9 -16 -10 -79 -1 -79 4 0 3 -9 -3 -19 -7 -13 -7 -22
0 -26 7 -4 7 -13 0 -24 -6 -12 -5 -22 1 -28 8 -8 8 -17 0 -31 -8 -15 -8 -23
-1 -27 8 -5 8 -11 1 -19 -6 -7 -7 -16 -3 -21 7 -7 -242 119 -473 240 -60 32
-153 80 -205 107 -52 27 -110 58 -127 69 -18 10 -33 16 -33 14 0 -3 -17 5 -37
18 -65 40 -321 166 -350 172 -38 8 -58 13 -58 15 0 1 -25 3 -56 4 -31 2 -61 6
-67 10 -6 3 -13 2 -17 -4 -3 -5 -16 -8 -28 -6 -23 3 -131 -19 -151 -31 -6 -4
-20 -9 -31 -10 -11 -2 -22 -8 -23 -13 -2 -6 -8 -8 -13 -4 -5 3 -9 0 -9 -6 0
-6 -4 -9 -8 -6 -10 6 -116 -76 -152 -117 -95 -110 -147 -227 -154 -348 -2 -25
-6 -51 -10 -58 -4 -6 -4 -11 1 -11 4 0 9 -26 10 -57 3 -61 14 -104 44 -170 10
-24 19 -47 19 -53 0 -5 5 -10 10 -10 6 0 10 -7 10 -15 0 -8 5 -15 10 -15 6 0
10 -5 10 -11 0 -6 6 -17 14 -25 8 -7 23 -24 33 -37 46 -57 128 -112 283 -189
36 -18 67 -36 70 -39 3 -4 16 -10 30 -14 14 -4 27 -11 30 -14 3 -4 66 -38 140
-76 139 -70 229 -117 430 -222 63 -33 178 -93 255 -133 77 -40 146 -77 153
-82 6 -6 12 -7 12 -2 0 5 4 5 8 -1 7 -9 34 -24 247 -132 50 -26 98 -53 108
-61 9 -8 17 -12 17 -8 0 4 14 -1 30 -11 17 -9 29 -22 26 -28 -2 -5 1 -18 6
-27 5 -10 5 -18 1 -18 -4 0 -8 -16 -8 -35 0 -19 3 -35 7 -35 4 0 3 -13 -2 -30
-5 -16 -6 -30 -2 -30 9 0 8 -53 -2 -68 -3 -6 -2 -13 4 -17 6 -4 8 -11 4 -16
-8 -13 -11 -79 -4 -79 3 0 5 -13 5 -30 0 -16 -3 -30 -7 -30 -4 0 -5 -7 -2 -14
4 -12 -1 -14 -22 -10 -16 3 -34 10 -41 16 -7 6 -13 8 -13 5 0 -2 -33 4 -72 15
-40 10 -82 21 -92 23 -10 3 -33 9 -51 15 -18 6 -42 13 -54 15 -11 3 -29 7 -38
10 -10 2 -43 11 -73 19 -30 8 -82 22 -115 31 -33 9 -69 18 -80 19 -11 2 -28 6
-37 10 -10 3 -26 9 -35 12 -10 4 -25 8 -33 9 -26 5 -57 13 -152 39 -51 14
-120 32 -153 41 -33 9 -109 30 -170 46 -60 17 -126 34 -145 38 -19 5 -68 18
-107 29 -40 11 -73 17 -73 15 0 -3 -6 -1 -13 5 -7 6 -28 14 -47 17 -30 5 -54
11 -125 31 -5 2 -35 10 -65 18 -30 8 -91 24 -135 36 -44 12 -96 25 -115 30
-19 5 -96 25 -170 45 -74 20 -142 39 -150 41 -8 2 -40 10 -70 19 -30 9 -64 18
-75 19 -11 2 -27 6 -35 9 -17 6 -69 20 -85 22 -5 1 -17 4 -25 8 -14 5 -160 44
-204 53 -11 3 -46 7 -77 9 -30 2 -60 5 -65 6 -5 1 -11 1 -14 0 -3 -2 -18 -4
-35 -6 -16 -3 -43 -6 -60 -9 -16 -2 -47 -11 -68 -20 -20 -9 -37 -14 -37 -11 0
3 -18 -6 -40 -20 -22 -14 -40 -22 -40 -19 0 4 -9 -3 -19 -15 -11 -12 -23 -22
-28 -22 -9 0 -103 -86 -103 -94 0 -3 -8 -14 -18 -25 -33 -36 -83 -141 -102
-216 -18 -70 -22 -208 -7 -269 16 -66 23 -85 52 -142 34 -67 123 -183 140
-183 6 0 16 -9 23 -20 7 -11 19 -20 27 -20 8 0 15 -4 15 -10 0 -5 5 -10 12
-10 6 0 19 -6 27 -14 16 -13 145 -62 189 -71 12 -3 30 -7 40 -10 9 -2 44 -11
77 -20 33 -9 76 -20 95 -26 19 -5 46 -12 59 -15 14 -3 28 -7 33 -10 5 -3 18
-7 31 -10 34 -6 56 -12 137 -34 41 -11 83 -23 93 -25 10 -2 27 -7 37 -10 25
-8 63 -16 78 -17 6 -1 12 -4 12 -8 0 -3 10 -6 23 -6 19 -1 112 -25 202 -54 17
-5 41 -11 55 -14 25 -5 43 -10 154 -40 33 -9 67 -18 75 -20 9 -2 23 -5 31 -8
35 -13 137 -40 163 -43 15 -1 33 -8 40 -14 8 -6 16 -9 19 -6 2 3 20 0 39 -6
19 -5 41 -12 49 -14 8 -2 58 -15 110 -30 52 -14 102 -27 110 -29 8 -2 42 -11
75 -20 33 -9 67 -18 75 -20 17 -5 171 -46 278 -74 39 -11 72 -17 72 -15 0 3 6
1 13 -5 6 -5 26 -13 42 -16 60 -10 89 -17 98 -23 4 -3 43 -14 85 -25 92 -23
175 -45 337 -88 66 -18 127 -34 135 -35 8 -2 16 -4 18 -5 1 -2 7 -4 12 -5 6
-1 11 -3 13 -4 1 -2 13 -4 27 -7 54 -9 68 -23 60 -59 -4 -18 -4 -39 1 -46 4
-7 5 -18 2 -23 -8 -13 -10 -56 -3 -56 7 0 4 -66 -4 -79 -4 -5 -2 -12 4 -16 6
-4 7 -11 4 -17 -10 -16 -11 -68 -1 -68 4 0 3 -8 -2 -18 -6 -11 -6 -24 0 -35 9
-16 -94 -17 -1883 -17 -2056 0 -1961 2 -2086 -55 -31 -14 -64 -33 -74 -42 -10
-9 -18 -13 -18 -10 0 14 -76 -58 -140 -133 -36 -41 -93 -171 -106 -240 -7 -36
-11 -101 -9 -145 5 -111 11 -136 58 -237 17 -38 34 -68 39 -68 4 0 8 -5 8 -10
0 -21 83 -106 145 -148 22 -15 42 -30 43 -34 2 -5 12 -8 23 -8 10 0 19 -4 19
-10 0 -5 9 -10 19 -10 11 0 22 -4 25 -8 5 -8 63 -23 141 -37 17 -3 876 -5
1909 -6 1034 0 1883 -2 1887 -5 5 -3 4 -15 -1 -28 -4 -12 -4 -29 0 -36 5 -8 6
-19 3 -24 -9 -13 -10 -56 -2 -56 3 0 3 -20 -1 -45 -4 -25 -3 -48 2 -51 4 -3 3
-14 -2 -25 -8 -13 -7 -19 0 -19 7 0 8 -6 0 -19 -7 -13 -7 -22 0 -26 6 -4 7
-13 1 -24 -6 -10 -6 -23 -1 -31 5 -8 6 -19 3 -24 -8 -13 -10 -56 -3 -56 7 0 4
-66 -4 -79 -4 -5 -2 -12 4 -16 6 -4 7 -11 4 -17 -10 -15 -11 -68 -2 -68 4 0 3
-13 -2 -30 -5 -16 -6 -30 -2 -30 9 0 8 -53 -2 -68 -3 -6 -2 -13 4 -17 6 -4 8
-11 4 -16 -9 -16 -10 -79 -1 -79 4 0 3 -9 -3 -19 -7 -13 -7 -22 0 -26 7 -4 7
-13 0 -24 -6 -12 -5 -22 1 -28 8 -8 8 -17 0 -31 -7 -14 -8 -23 -1 -27 6 -4 7
-11 4 -17 -10 -15 -11 -68 -2 -68 4 0 3 -13 -2 -30 -5 -16 -6 -30 -2 -30 9 0
8 -53 -2 -68 -3 -6 -2 -13 4 -17 6 -4 8 -11 4 -16 -9 -16 -10 -79 -1 -79 4 0
3 -9 -3 -19 -7 -13 -7 -22 0 -26 7 -4 7 -13 0 -24 -6 -12 -5 -22 1 -28 8 -8 8
-17 0 -31 -7 -14 -8 -23 -1 -27 6 -4 7 -11 4 -17 -10 -15 -11 -68 -2 -68 4 0
3 -13 -2 -30 -5 -16 -6 -30 -2 -30 9 0 8 -53 -2 -68 -3 -6 -2 -13 4 -17 6 -4
8 -11 4 -16 -10 -16 -11 -70 -2 -75 4 -3 3 -14 -2 -25 -8 -13 -7 -19 0 -19 7
0 8 -6 0 -19 -7 -13 -7 -22 0 -26 6 -4 7 -13 1 -24 -6 -10 -6 -23 -1 -31 5 -8
6 -19 3 -24 -9 -13 -10 -56 -2 -56 3 0 3 -20 -1 -45 -4 -25 -3 -48 2 -51 4 -3
3 -14 -2 -25 -8 -13 -7 -19 0 -19 7 0 8 -6 0 -19 -7 -13 -7 -22 0 -26 6 -4 7
-13 1 -24 -6 -10 -6 -23 -1 -31 5 -8 6 -19 3 -24 -8 -13 -10 -56 -3 -56 7 0 4
-66 -4 -79 -4 -5 -2 -12 4 -16 6 -4 7 -11 4 -17 -10 -15 -11 -68 -2 -68 4 0 3
-13 -2 -30 -5 -16 -6 -30 -2 -30 9 0 8 -53 -2 -68 -3 -6 -2 -13 4 -17 6 -4 8
-11 4 -16 -9 -16 -10 -79 -1 -79 4 0 3 -9 -3 -19 -7 -13 -7 -22 0 -26 7 -4 7
-13 0 -24 -6 -12 -5 -22 1 -28 8 -8 8 -17 0 -31 -7 -14 -8 -23 -1 -27 6 -4 7
-11 4 -17 -10 -15 -11 -68 -2 -68 4 0 3 -13 -2 -30 -5 -16 -6 -30 -2 -30 9 0
8 -53 -2 -68 -3 -6 -2 -13 4 -17 6 -4 8 -11 4 -16 -9 -16 -10 -79 -1 -79 4 0
3 -9 -3 -19 -7 -13 -7 -22 0 -26 7 -4 7 -13 0 -24 -6 -12 -5 -22 1 -28 8 -8 8
-17 0 -31 -7 -14 -8 -23 -1 -27 6 -4 7 -11 4 -17 -10 -15 -11 -68 -2 -68 4 0
3 -13 -2 -30 -5 -16 -6 -30 -2 -30 9 0 8 -53 -2 -68 -3 -6 -2 -13 4 -17 6 -3
7 -14 2 -23 -9 -21 -9 -43 1 -59 4 -6 4 -14 -1 -16 -8 -5 -7 -29 3 -129 7 -70
41 -184 66 -220 11 -14 19 -29 19 -33 0 -11 63 -87 104 -124 62 -57 130 -98
213 -127 67 -24 94 -28 188 -28 80 0 126 5 170 19 33 10 62 19 65 19 15 2 140
80 140 88 0 4 4 8 10 8 21 0 140 141 140 166 0 8 5 14 10 14 6 0 10 9 10 20 0
11 5 20 12 20 6 0 9 3 6 6 -4 3 0 21 8 40 8 19 11 34 8 34 -4 0 -2 6 4 13 6 7
13 32 14 55 2 23 7 42 11 42 4 0 3 8 -2 18 -6 11 -6 24 0 34 6 10 6 19 0 23
-7 4 -7 15 -1 30 6 17 6 25 -1 25 -6 0 -7 6 0 17 5 10 5 26 0 40 -5 14 -5 23
1 23 6 0 6 9 0 25 -6 15 -6 26 0 30 7 4 6 13 0 26 -8 13 -7 19 0 19 7 0 8 6 0
19 -7 14 -7 22 0 26 8 5 8 11 0 20 -7 9 -8 15 -1 19 7 5 7 15 1 31 -6 16 -6
25 0 25 6 0 6 9 0 25 -6 15 -6 26 0 30 7 4 6 13 0 26 -8 13 -7 19 0 19 7 0 8
6 0 19 -7 14 -7 22 0 26 7 5 8 11 1 19 -6 7 -6 17 -1 26 5 8 5 21 -1 32 -6 12
-6 18 0 18 7 0 7 9 1 25 -6 15 -6 26 0 30 6 4 7 14 2 23 -9 19 -8 54 2 71 4 6
2 11 -4 11 -8 0 -8 6 0 20 8 14 8 20 0 20 -8 0 -8 6 0 20 8 14 8 20 0 20 -8 0
-8 6 0 20 8 14 8 20 0 20 -8 0 -8 6 0 20 8 14 8 20 0 20 -8 0 -8 6 0 20 8 14
8 20 0 20 -8 0 -8 6 0 20 8 14 8 20 0 20 -8 0 -8 6 0 20 8 14 8 20 0 20 -8 0
-8 6 0 20 8 14 8 20 0 20 -8 0 -8 6 0 20 8 14 8 20 0 20 -8 0 -8 6 0 20 8 14
8 20 0 20 -8 0 -8 6 0 20 8 14 8 20 0 20 -8 0 -8 6 0 20 8 14 8 20 0 20 -8 0
-8 6 0 20 8 14 8 20 0 20 -8 0 -8 6 0 20 8 14 8 20 0 20 -7 0 -8 7 -3 18 10
21 10 53 0 69 -4 6 -3 14 3 18 6 4 7 12 0 24 -6 12 -5 22 1 28 8 8 8 13 0 17
-7 5 -7 15 -1 31 6 16 6 25 -1 25 -6 0 -6 7 1 19 7 13 7 22 0 26 -7 4 -7 12 0
25 7 13 7 21 0 25 -8 5 -8 11 0 20 8 9 8 15 0 20 -7 4 -7 12 0 26 7 12 7 19 1
19 -6 0 -6 11 -1 30 5 19 5 30 -1 30 -6 0 -6 7 1 19 7 13 7 22 0 26 -7 4 -7
12 0 25 7 13 7 21 0 25 -8 5 -8 11 0 20 8 9 8 15 0 20 -7 4 -7 12 0 26 7 12 7
19 1 19 -6 0 -6 11 -1 30 5 19 5 30 -1 30 -6 0 -6 7 1 19 7 13 7 22 0 26 -7 4
-7 12 0 25 7 13 7 21 0 25 -8 5 -8 11 0 20 8 9 8 15 0 20 -7 4 -7 12 0 26 7
12 7 19 1 19 -6 0 -6 11 -1 30 5 19 5 30 -1 30 -6 0 -6 7 1 19 7 13 7 22 0 26
-7 4 -7 12 0 25 7 13 7 21 0 25 -8 5 -8 11 0 20 8 9 8 15 0 20 -7 4 -7 12 0
26 7 12 7 19 1 19 -6 0 -6 11 -1 30 5 19 5 30 -1 30 -6 0 -6 7 1 19 7 13 7 22
0 26 -7 4 -7 12 0 25 6 10 6 21 1 24 -9 6 -7 48 4 65 3 6 1 11 -5 11 -8 0 -8
6 0 20 8 14 8 20 0 20 -8 0 -8 6 0 20 8 14 8 20 0 20 -8 0 -8 6 0 20 8 14 8
20 0 20 -8 0 -8 6 0 20 8 14 8 20 0 20 -8 0 -8 6 0 20 8 14 8 20 0 20 -8 0 -8
6 0 20 8 14 8 20 0 20 -8 0 -8 6 0 20 8 14 8 20 0 20 -8 0 -8 6 0 20 8 14 8
20 0 20 -8 0 -8 6 0 20 8 14 8 20 0 20 -8 0 -8 6 0 20 8 14 8 20 0 20 -8 0 -8
6 0 20 8 14 8 20 0 20 -8 0 -8 6 0 20 8 14 8 20 0 20 -8 0 -8 6 0 20 8 14 8
20 0 20 -8 0 -8 6 0 20 8 14 8 20 0 20 -6 0 -8 5 -5 11 10 15 12 79 3 79 -4 0
-5 7 -2 15 9 22 10 134 2 128 -5 -2 -4 7 2 21 6 16 6 26 0 26 -6 0 -6 9 0 25
5 14 6 25 2 25 -4 0 -7 11 -7 25 0 14 4 25 8 25 4 0 3 9 -3 20 -6 11 -7 20 -3
20 4 0 8 13 8 29 0 16 -3 27 -7 24 -5 -2 -4 7 2 21 5 15 6 26 1 26 -5 0 -7 9
-4 20 5 19 27 19 1862 20 1021 0 1882 2 1913 4 94 7 222 51 271 94 9 8 17 12
17 9 0 -4 8 1 19 11 86 80 107 102 132 139 16 23 29 46 29 52 0 6 5 11 10 11
6 0 10 8 10 18 0 10 5 23 11 29 6 6 12 19 14 29 2 11 4 19 5 19 1 0 3 7 5 15
2 8 8 36 14 62 13 55 8 195 -8 258 -27 102 -90 208 -172 288 -29 28 -59 52
-66 52 -7 0 -13 5 -13 10 0 6 -6 10 -14 10 -8 0 -16 4 -18 8 -5 14 -130 59
-193 71 -42 8 -617 11 -1937 11 -1843 0 -1878 1 -1888 20 -7 12 -7 21 0 25 7
4 7 13 0 26 -7 12 -7 19 -1 19 7 0 7 9 1 25 -6 16 -6 26 1 31 7 4 6 10 -1 19
-7 9 -8 15 -1 19 7 5 7 15 1 31 -6 16 -6 25 0 25 6 0 6 10 0 26 -6 14 -7 23
-2 21 9 -6 7 107 -3 122 -3 6 -3 12 2 12 4 1 17 3 28 5 22 3 413 108 460 123
17 6 41 12 55 15 14 2 37 9 53 15 15 6 27 8 27 6 0 -2 11 0 25 5 14 5 36 12
48 14 54 12 68 15 75 20 8 4 41 13 82 20 8 2 22 6 30 9 12 5 73 21 190 52 8 2
85 22 170 45 85 22 166 43 179 46 14 3 28 7 33 10 7 5 20 8 73 19 11 3 42 11
69 19 27 8 53 13 57 10 4 -2 9 -1 11 4 3 6 94 32 168 47 14 3 36 10 50 15 22
8 361 97 400 105 8 2 15 4 15 5 0 1 7 3 15 5 8 2 57 15 107 29 51 14 103 28
115 30 13 3 44 11 71 19 26 8 47 13 47 11 0 -2 12 1 28 7 15 6 35 12 44 14 10
2 62 16 115 30 54 15 109 29 122 32 14 2 28 6 33 9 8 5 22 9 77 20 13 3 32 9
43 15 10 5 18 8 18 5 0 -7 99 28 138 48 18 9 34 15 38 14 3 -2 10 5 15 15 6 9
14 17 19 17 18 0 114 92 148 142 9 13 20 26 25 29 5 3 8 8 6 10 -1 2 8 23 20
47 40 78 61 184 57 285 -4 96 -34 209 -68 259 -10 14 -18 30 -18 35 0 9 -44
62 -92 111 -80 81 -231 156 -338 166 -25 2 -47 5 -50 6 -3 1 -9 2 -15 0 -5 -1
-35 -3 -67 -5 -32 -3 -75 -9 -96 -14 -20 -6 -46 -12 -57 -14 -11 -2 -27 -7
-35 -10 -25 -10 -184 -50 -202 -51 -10 0 -18 -5 -18 -10 0 -5 -3 -7 -6 -3 -3
3 -18 1 -33 -5 -14 -5 -39 -12 -56 -15 -16 -3 -38 -9 -47 -14 -10 -5 -18 -8
-18 -5 0 3 -15 0 -32 -5 -37 -11 -243 -67 -272 -74 -10 -2 -44 -12 -75 -21
-65 -19 -88 -24 -117 -29 -12 -2 -31 -8 -43 -14 -11 -7 -21 -9 -21 -7 0 3 -12
1 -27 -5 -16 -6 -37 -12 -48 -14 -11 -2 -35 -8 -52 -13 -18 -6 -33 -9 -33 -6
0 3 -8 0 -18 -5 -11 -6 -31 -12 -46 -15 -16 -3 -87 -22 -159 -42 -73 -20 -136
-37 -142 -38 -5 -1 -19 -5 -30 -9 -11 -3 -31 -8 -45 -11 -14 -3 -74 -19 -135
-36 -60 -17 -119 -32 -130 -34 -11 -2 -27 -6 -35 -9 -25 -8 -104 -30 -120 -33
-8 -1 -42 -10 -75 -19 -33 -9 -67 -19 -75 -20 -8 -2 -30 -8 -48 -14 -18 -5
-35 -10 -37 -10 -3 -1 -6 -1 -7 -2 -2 0 -10 -2 -18 -4 -8 -1 -42 -10 -75 -19
-33 -9 -67 -18 -75 -20 -8 -2 -51 -14 -95 -26 -290 -79 -282 -77 -293 -60 -6
10 -6 22 0 33 6 11 5 17 -2 17 -7 0 -8 6 0 19 7 13 7 22 0 26 -7 4 -7 13 0 26
7 12 7 19 1 19 -7 0 -7 9 -1 25 6 17 6 25 -1 25 -6 0 -7 4 -4 10 9 15 12 89 3
84 -4 -3 -4 6 2 20 6 16 6 26 0 26 -6 0 -6 9 -1 23 5 12 5 31 1 43 -11 29 -4
37 70 75 36 19 68 38 72 44 4 5 8 7 8 3 0 -3 31 10 68 30 37 20 113 60 167 87
55 28 102 52 105 55 3 3 48 27 100 53 52 26 119 61 148 77 28 17 52 27 52 23
0 -5 4 -3 8 4 4 6 14 13 22 15 8 2 21 9 28 16 8 7 17 10 22 7 5 -3 10 -2 12 3
1 4 28 20 58 36 118 61 262 136 415 216 344 178 415 218 415 233 0 4 4 7 10 7
24 0 176 190 153 190 -5 0 -2 4 4 8 7 4 14 17 16 27 1 11 5 25 9 30 12 19 30
98 33 146 2 26 6 52 10 58 3 6 3 11 -2 11 -4 0 -8 15 -7 32 3 87 -65 262 -126
328 -15 16 -26 30 -22 30 6 0 -20 23 -84 76 -23 19 -44 34 -48 34 -3 0 -24 11
-46 25 -22 14 -40 23 -40 20 0 -3 -13 1 -30 10 -16 9 -30 13 -30 11 0 -3 -11
-1 -25 4 -22 8 -115 22 -150 22 -30 -1 -106 -12 -150 -23 -43 -10 -438 -204
-472 -231 -7 -6 -13 -7 -13 -2 0 5 -4 4 -8 -1 -4 -6 -54 -34 -112 -64 -58 -29
-108 -58 -111 -63 -3 -5 -9 -9 -13 -9 -11 1 -120 -51 -148 -71 -16 -11 -28
-16 -28 -12 0 4 -9 -1 -20 -11 -11 -10 -20 -14 -20 -10 0 4 -8 2 -17 -6 -26
-22 -287 -153 -279 -141 3 6 2 13 -4 17 -7 4 -7 12 0 25 7 13 7 21 0 25 -8 5
-8 11 0 20 8 9 8 15 0 20 -6 4 -7 12 0 24 6 12 5 22 -1 28 -8 8 -7 13 0 17 8
5 8 13 1 27 -8 13 -7 19 0 19 8 0 8 6 0 20 -8 14 -8 20 0 20 8 0 8 6 0 20 -6
11 -7 20 -3 20 4 0 8 13 8 29 0 16 -3 27 -7 24 -5 -2 -4 7 2 21 6 16 6 26 0
26 -6 0 -6 9 0 25 5 14 6 25 2 25 -4 0 -7 11 -7 25 0 14 4 25 8 25 4 0 3 9 -3
20 -6 11 -7 20 -3 20 9 0 8 28 -2 115 -16 149 -64 255 -163 358 -75 78 -160
131 -262 161 -55 17 -212 28 -260 20z"/>
</g>
</svg>
