<?xml version="1.0" standalone="no"?>
<!DOCTYPE svg PUBLIC "-//W3C//DTD SVG 20010904//EN"
 "http://www.w3.org/TR/2001/REC-SVG-20010904/DTD/svg10.dtd">
<svg version="1.0" xmlns="http://www.w3.org/2000/svg"
 width="16.000000pt" height="16.000000pt" viewBox="0 0 16.000000 16.000000"
 preserveAspectRatio="xMidYMid meet">
<metadata>
Created by potrace 1.11, written by Peter Selinger 2001-2013
</metadata>
<g transform="translate(0.000000,16.000000) scale(0.002286,-0.002286)"
fill="#000000" stroke="none">
<path d="M3298 6995 c-2 -1 -41 -5 -88 -9 -100 -7 -225 -22 -295 -36 -27 -5
-61 -12 -75 -14 -431 -79 -908 -273 -1275 -519 -69 -46 -297 -217 -305 -228
-3 -3 -25 -23 -50 -44 -85 -70 -216 -201 -361 -361 -209 -230 -452 -625 -585
-952 -63 -153 -143 -399 -170 -525 -20 -90 -53 -272 -59 -322 -4 -33 -9 -69
-11 -80 -18 -98 -25 -570 -10 -715 7 -77 24 -205 31 -250 6 -32 24 -129 29
-155 48 -244 156 -562 273 -802 449 -928 1279 -1611 2270 -1868 72 -19 142
-36 155 -39 13 -2 50 -9 83 -15 33 -6 71 -13 85 -16 14 -3 52 -8 85 -11 33 -3
63 -8 66 -9 15 -10 227 -20 409 -20 188 0 341 8 430 21 144 21 295 48 345 61
33 8 67 16 75 18 109 22 388 117 549 187 121 53 308 148 353 179 14 11 29 19
33 19 24 0 383 257 495 355 119 104 294 279 365 365 21 25 41 47 44 50 4 3 45
55 91 115 332 436 547 915 654 1456 14 70 28 155 32 190 3 35 8 67 10 70 9 17
19 214 18 399 0 188 -6 331 -19 420 -3 19 -7 56 -10 81 -3 25 -7 54 -9 65 -2
10 -11 60 -21 109 -85 456 -276 915 -543 1305 -56 82 -194 265 -211 280 -3 3
-35 38 -70 78 -479 547 -1164 944 -1888 1096 -99 21 -244 44 -393 61 -55 7
-526 16 -532 10z m1943 -1930 c1 -5 1 -14 0 -19 -1 -5 -4 -26 -6 -45 -2 -20
-8 -65 -14 -101 -5 -36 -13 -85 -16 -110 -4 -25 -8 -46 -9 -47 -2 -3 -164 -11
-241 -12 -33 -1 -66 -5 -72 -9 -10 -7 -44 -175 -69 -339 -3 -21 -7 -45 -9 -53
-3 -8 -7 -33 -10 -55 -4 -22 -15 -87 -25 -145 -11 -58 -31 -172 -45 -255 -14
-82 -27 -161 -29 -175 -3 -14 -17 -92 -31 -175 -14 -82 -28 -161 -31 -175 -2
-14 -20 -117 -39 -230 -19 -113 -37 -214 -39 -225 -2 -11 -7 -40 -12 -65 -4
-25 -8 -47 -9 -50 -1 -6 -16 -97 -21 -125 -1 -11 -10 -60 -19 -110 -9 -49 -18
-101 -20 -115 -2 -14 -9 -56 -16 -93 -6 -37 -10 -70 -7 -72 3 -3 189 -13 289
-14 45 -1 46 -2 44 -28 -5 -54 -48 -288 -54 -295 -3 -4 -273 -8 -599 -10
l-592 -3 5 40 c15 102 48 281 54 288 4 4 85 10 179 13 94 3 180 7 189 8 15 2
22 26 40 125 12 67 24 141 27 164 3 23 8 53 11 67 2 13 7 42 10 65 3 22 8 47
10 55 4 14 7 32 20 125 3 22 10 63 15 90 5 28 12 68 15 90 3 22 12 81 21 130
9 50 16 103 17 120 l2 29 -694 -2 c-382 -1 -695 -3 -697 -5 -1 -1 -9 -45 -18
-97 -9 -52 -18 -106 -21 -120 -6 -30 -12 -63 -19 -110 -3 -19 -21 -123 -40
-230 -19 -107 -44 -251 -56 -320 -11 -69 -23 -138 -26 -153 -5 -26 -4 -28 28
-26 34 2 382 -11 384 -14 2 -2 -42 -268 -51 -307 l-5 -25 -605 0 c-533 0 -604
2 -601 15 2 8 17 84 32 168 l28 152 45 1 c25 1 62 3 81 4 19 1 72 4 118 5 45
2 82 4 82 6 0 2 16 95 35 206 19 112 37 221 40 243 3 22 8 49 10 61 3 12 7 39
10 60 4 21 17 102 30 179 14 77 27 158 30 180 3 22 8 49 10 61 3 12 7 39 10
60 3 21 10 62 15 89 5 28 12 64 14 80 3 17 21 127 41 245 20 118 38 226 40
240 5 33 74 446 81 485 2 17 9 55 14 85 5 30 12 73 15 95 3 22 8 52 11 68 l6
27 -69 1 c-104 1 -237 8 -249 13 -8 3 -2 53 21 163 l31 158 598 3 598 2 -6
-32 c-3 -18 -8 -42 -10 -53 -4 -26 -20 -117 -21 -130 -8 -59 -19 -106 -25
-110 -4 -3 -93 -8 -196 -11 -104 -3 -191 -8 -193 -10 -3 -3 -6 -10 -7 -17 -6
-26 -35 -194 -40 -222 -2 -16 -9 -52 -14 -80 -5 -27 -12 -66 -14 -85 -3 -19
-8 -46 -11 -60 -5 -25 -11 -60 -20 -114 -2 -16 -9 -52 -14 -80 -14 -66 -19
-101 -27 -156 -3 -25 -8 -48 -10 -51 -1 -3 -6 -28 -9 -55 -4 -27 -11 -65 -16
-84 -5 -19 -9 -38 -9 -42 0 -5 315 -8 700 -8 553 0 700 3 701 13 0 6 2 19 4
27 11 54 36 191 39 216 2 16 11 72 20 124 33 183 55 316 61 355 3 17 7 41 10
55 3 14 8 41 11 60 2 19 9 58 14 85 6 28 12 66 15 86 l6 37 -133 2 c-129 2
-237 6 -249 9 -6 1 -5 16 11 111 5 30 12 71 15 90 8 51 16 92 21 112 5 17 37
18 437 20 687 5 737 4 738 -7z"/>
</g>
</svg>
