<?xml version="1.0" encoding="UTF-8"?>
<svg width="170px" height="30px" viewBox="0 0 170 30" version="1.1" xmlns="http://www.w3.org/2000/svg" xmlns:xlink="http://www.w3.org/1999/xlink">
    <!-- Generator: Sketch 43.2 (39069) - http://www.bohemiancoding.com/sketch -->
    <title>brianhhall--logo</title>
    <desc>Created with Sketch.</desc>
    <defs></defs>
    <g id="Page-1" stroke="none" stroke-width="1" fill="none" fill-rule="evenodd">
        <path d="M17.46,7.84 C17.46,9.96 16.46,11.88 14.94,13.12 C17.82,14.44 19.86,17.36 19.86,20.72 C19.86,23.2 18.78,25.36 17.1,26.88 C15.62,28.2 13.66,29 10.74,29 L0.66,29 L0.66,1 L9.82,1 C12.42,1 14.06,1.72 15.3,2.88 C16.62,4.12 17.46,5.88 17.46,7.84 Z M10.62,14.68 L3.06,14.68 L3.06,26.72 L10.62,26.72 C13.06,26.72 14.54,26.08 15.62,25.04 C16.74,23.96 17.46,22.4 17.46,20.72 C17.46,19.04 16.74,17.48 15.62,16.4 C14.54,15.36 13.06,14.68 10.62,14.68 Z M3.06,12.4 L9.7,12.4 C11.82,12.4 13.02,11.8 13.86,10.92 C14.62,10.12 15.06,9.04 15.06,7.84 C15.06,6.64 14.62,5.56 13.86,4.76 C13.02,3.88 11.82,3.28 9.7,3.28 L3.06,3.28 L3.06,12.4 Z M34.06,10.44 C33.82,10.4 33.02,10.36 32.7,10.36 C29.86,10.36 27.78,11.88 26.94,13.16 L26.94,10.76 L24.66,10.76 L24.66,29 L26.94,29 L26.94,16.56 C27.9,14.2 30.18,12.52 32.66,12.52 C32.78,12.52 33.5,12.52 33.74,12.56 L34.06,10.44 Z M38.66,29 L40.94,29 L40.94,10.76 L38.66,10.76 L38.66,29 Z M37.78,4.44 C37.78,5.56 38.66,6.44 39.78,6.44 C40.9,6.44 41.82,5.56 41.82,4.44 C41.82,3.32 40.9,2.4 39.78,2.4 C38.66,2.4 37.78,3.32 37.78,4.44 Z M64.22,29 L62.02,29 L62.02,26.32 C60.66,28.16 58.3,29.4 55.46,29.4 C53.74,29.4 51.82,28.96 50.02,27.68 C47.62,26 46.14,23.16 46.14,19.88 C46.14,16.84 47.46,14.16 49.54,12.4 C51.06,11.16 53.14,10.36 55.34,10.36 C57.98,10.36 60.38,11.44 62.02,13.28 L62.02,10.76 L64.22,10.76 L64.22,29 Z M61.94,23.24 L61.94,16.2 C61.14,14.84 58.74,12.52 55.38,12.52 C53.86,12.52 52.26,13.04 50.98,14.08 C49.38,15.4 48.42,17.52 48.42,19.88 C48.42,22.4 49.54,24.64 51.3,25.88 C52.46,26.68 53.86,27.24 55.42,27.24 C58.1,27.24 60.5,25.72 61.94,23.24 Z M73.22,10.76 L71.02,10.76 L71.02,29 L73.3,29 L73.3,16.32 C74.7,13.92 76.98,12.52 79.62,12.52 C81.62,12.52 83.34,13.44 84.38,14.96 C85.02,15.88 85.42,17.04 85.42,19.44 L85.42,29 L87.7,29 L87.7,19.28 C87.7,16.28 87.14,14.76 86.14,13.44 C84.66,11.44 82.3,10.36 79.66,10.36 C77.1,10.36 74.7,11.36 73.22,13.32 L73.22,10.76 Z M125.5,29 L127.9,29 L127.9,1 L125.5,1 L125.5,12.4 L107.5,12.4 L107.5,1 L105.1,1 L105.1,29 L107.5,29 L107.5,14.68 L125.5,14.68 L125.5,29 Z M151.38,29 L149.18,29 L149.18,26.32 C147.82,28.16 145.46,29.4 142.62,29.4 C140.9,29.4 138.98,28.96 137.18,27.68 C134.78,26 133.3,23.16 133.3,19.88 C133.3,16.84 134.62,14.16 136.7,12.4 C138.22,11.16 140.3,10.36 142.5,10.36 C145.14,10.36 147.54,11.44 149.18,13.28 L149.18,10.76 L151.38,10.76 L151.38,29 Z M149.1,23.24 L149.1,16.2 C148.3,14.84 145.9,12.52 142.54,12.52 C141.02,12.52 139.42,13.04 138.14,14.08 C136.54,15.4 135.58,17.52 135.58,19.88 C135.58,22.4 136.7,24.64 138.46,25.88 C139.62,26.68 141.02,27.24 142.58,27.24 C145.26,27.24 147.66,25.72 149.1,23.24 Z M158.18,29 L160.46,29 L160.46,0.6 L158.18,0.6 L158.18,29 Z M167.26,29 L169.54,29 L169.54,0.6 L167.26,0.6 L167.26,29 Z" id="brianhhall--logo" fill="#AC3B29"></path>
    </g>
</svg>