<?xml version="1.0" encoding="UTF-8"?>
<svg width="327px" height="72px" viewBox="0 0 327 72" version="1.1" xmlns="http://www.w3.org/2000/svg" xmlns:xlink="http://www.w3.org/1999/xlink">
    <!-- Generator: Sketch 42 (36781) - http://www.bohemiancoding.com/sketch -->
    <title>dchux--logo</title>
    <desc>Created with Sketch.</desc>
    <defs></defs>
    <g id="Symbols" stroke="none" stroke-width="1" fill="none" fill-rule="evenodd">
        <g id="dchux--logo" fill="#FFFFFF">
            <path d="M303.242666,35.6213328 L326.990221,11.8737776 L315.116443,-7.10542736e-15 L291.368888,23.7475552 L267.621333,0 L255.747555,11.8737776 L279.49511,35.6213328 L255.747555,59.368888 L267.621333,71.2426656 L291.368888,47.4951104 L315.116443,71.2426656 L326.990221,59.368888 L303.242666,35.6213328 Z M0,69.9990013 L0,2.50588834 L17.8762917,2.50588834 C41.1681893,2.50588834 54.012281,15.1367423 54.012281,36.2524448 C54.012281,59.0072658 40.4972293,69.9990013 17.8762917,69.9990013 L0,69.9990013 Z M4.88842294,65.4673208 L19.8891718,65.4673208 C37.7175378,65.4673208 49.0280066,55.4397726 49.0280066,36.2524448 C49.0280066,18.0293043 37.7175378,7.03756878 19.8891718,7.03756878 L4.88842294,7.03756878 L4.88842294,65.4673208 Z M116.411562,58.5251721 L118.041036,62.8640151 C116.219859,64.7923897 108.072488,71.2524448 95.8035046,71.2524448 C76.7290699,71.2524448 62.1596525,56.2111225 62.1596525,36.2524448 C62.1596525,16.2937671 77.1124757,1.25244481 95.5159503,1.25244481 C106.155459,1.25244481 113.536019,5.97696272 116.699116,8.67668724 L114.973791,13.1119489 C112.673356,11.0871556 105.58035,5.88054399 95.5159503,5.88054399 C79.8921671,5.88054399 67.2397783,18.8006542 67.2397783,36.2524448 C67.2397783,53.7042354 79.2212071,66.6243456 95.8035046,66.6243456 C107.401528,66.6243456 114.494533,60.2607093 116.411562,58.5251721 Z M184.466078,2.50588834 L184.466078,69.9990013 L168.075483,69.9990013 L168.075483,43.5802685 L144.112625,43.5802685 L144.112625,69.9990013 L127.722031,69.9990013 L127.722031,2.50588834 L144.112625,2.50588834 L144.112625,28.7317837 L168.075483,28.7317837 L168.075483,2.50588834 L184.466078,2.50588834 Z M224.14857,71.1560261 C206.128501,71.1560261 196.159952,60.1642905 196.159952,44.0623622 L196.159952,2.50588834 L212.550547,2.50588834 L212.550547,44.0623622 C212.550547,51.3901859 216.959712,55.9218663 224.244421,55.9218663 C231.624981,55.9218663 235.746593,51.3901859 235.746593,43.9659434 L235.746593,2.50588834 L252.137187,2.50588834 L252.137187,43.9659434 C252.137187,59.7786156 241.881084,71.1560261 224.14857,71.1560261 Z"></path>
        </g>
    </g>
</svg>