<?xml version="1.0" encoding="UTF-8"?>
<svg width="137px" height="45px" viewBox="0 0 137 45" version="1.1" xmlns="http://www.w3.org/2000/svg" xmlns:xlink="http://www.w3.org/1999/xlink">
    <!-- Generator: Sketch 43.2 (39069) - http://www.bohemiancoding.com/sketch -->
    <title>Combined Shape</title>
    <desc>Created with Sketch.</desc>
    <defs></defs>
    <g id="Page-1" stroke="none" stroke-width="1" fill="none" fill-rule="evenodd">
        <path d="M135.125,45 L137,45 L137,1.875 L137,0 L125.75,0 L125.75,3.75 L133.25,3.75 L133.25,41.25 L125.75,41.25 L125.75,45 L135.125,45 Z M1.875,45 L0,45 L0,0 L1.875,0 L11.25,0 L11.25,3.75 L3.75,3.75 L3.75,41.25 L11.25,41.25 L11.25,45 L1.875,45 Z M73.0044367,22.5 C75.2738347,21.1865725 77.0153907,19.582298 78.2636478,17.7373869 C80.2717731,14.7693985 80.7767189,11.6555449 80.4438849,8.95742294 C80.4103066,8.68522024 80.3739763,8.47807722 80.3439963,8.34318988 C80.1193212,7.33232312 79.1177167,6.6949888 78.10685,6.91966382 C77.0959832,7.14433885 76.4586489,8.14594336 76.6833239,9.15681012 C76.6993516,9.24880249 76.7108845,9.32565319 76.7220954,9.41653417 C76.9531207,11.2893431 76.5920199,13.5161468 75.1577639,15.6359623 C73.8262051,17.6039925 71.6761422,19.2642266 68.5136601,20.4985848 C65.351178,19.2642266 63.2011151,17.6039925 61.8695563,15.6359623 C60.4353003,13.5161468 60.0741995,11.2893431 60.3052248,9.41653417 C60.3164356,9.32565319 60.3279686,9.24880249 60.3388049,9.18701701 C60.5686713,8.14594336 59.931337,7.14433885 58.9204702,6.91966382 C57.9096034,6.6949888 56.9079989,7.33232312 56.6833239,8.34318988 C56.6533439,8.47807722 56.6170136,8.68522024 56.5834353,8.95742294 C56.2506013,11.6555449 56.7555471,14.7693985 58.7636724,17.7373869 C60.0119294,19.582298 61.7534855,21.1865725 64.0228834,22.5 C61.7534855,23.8134275 60.0119294,25.417702 58.7636724,27.2626131 C56.7555471,30.2306015 56.2506013,33.3444551 56.5834353,36.0425771 C56.6170136,36.3147798 56.6533439,36.5219228 56.6833239,36.6568101 C56.9079989,37.6676769 57.9096034,38.3050112 58.9204702,38.0803362 C59.931337,37.8556612 60.5686713,36.8540566 60.3439963,35.8431899 C60.3279686,35.7511975 60.3164356,35.6743468 60.3052248,35.5834658 C60.0741995,33.7106569 60.4353003,31.4838532 61.8695563,29.3640377 C63.2011151,27.3960075 65.351178,25.7357734 68.5136601,24.5014152 C71.6761422,25.7357734 73.8262051,27.3960075 75.1577639,29.3640377 C76.5920199,31.4838532 76.9531207,33.7106569 76.7220954,35.5834658 C76.7108845,35.6743468 76.6993516,35.7511975 76.6885152,35.812983 C76.4586489,36.8540566 77.0959832,37.8556612 78.10685,38.0803362 C79.1177167,38.3050112 80.1193212,37.6676769 80.3439963,36.6568101 C80.3739763,36.5219228 80.4103066,36.3147798 80.4438849,36.0425771 C80.7767189,33.3444551 80.2717731,30.2306015 78.2636478,27.2626131 C77.0153908,25.417702 75.2738347,23.8134275 73.0044368,22.5000001 Z M106.625,26.4450411 L106.625,19.6908106 L116.483167,17.0616773 C117.483729,16.7948315 118.078523,15.7673947 117.811677,14.766833 C117.544832,13.7662712 116.517395,13.1714769 115.516833,13.4383227 L106.625,15.8097386 L106.625,8.25 C106.625,7.21446609 105.785534,6.375 104.75,6.375 C103.714466,6.375 102.875,7.21446609 102.875,8.25 L102.875,15.8092177 L93.9830679,13.4382963 C92.9824916,13.1715052 91.9550873,13.7663557 91.6882963,14.7669321 C91.4215052,15.7675084 92.0163557,16.7949127 93.0169321,17.0617037 L102.875,19.6902331 L102.875,26.4450411 L93.4585948,35.3906261 C92.7078333,36.1038495 92.6774026,37.2906437 93.3906261,38.0414052 C94.1038495,38.7921667 95.2906437,38.8225974 96.0414052,38.1093739 L104.75,29.8362089 L113.458595,38.1093739 C114.209356,38.8225974 115.396151,38.7921667 116.109374,38.0414052 C116.822597,37.2906437 116.792167,36.1038495 116.041405,35.3906261 L106.625,26.4450411 Z M30.375,21 L18.75,21 C17.7144661,21 16.875,21.8394661 16.875,22.875 C16.875,23.9105339 17.7144661,24.75 18.75,24.75 L30.375,24.75 L30.375,36.75 C30.375,37.7855339 31.2144661,38.625 32.25,38.625 C33.2855339,38.625 34.125,37.7855339 34.125,36.75 L34.125,24.75 L45.75,24.75 C46.7855339,24.75 47.625,23.9105339 47.625,22.875 C47.625,21.8394661 46.7855339,21 45.75,21 L34.125,21 L34.125,19.6908106 L43.983167,17.0616773 C44.9837288,16.7948315 45.5785231,15.7673947 45.3116773,14.766833 C45.0448315,13.7662712 44.0173947,13.1714769 43.016833,13.4383227 L34.125,15.8097386 L34.125,14.3883504 L39.3650364,11.6635315 C40.2837795,11.1857851 40.6412779,10.0537067 40.1635315,9.13496362 C39.6857851,8.21622054 38.5537067,7.8587221 37.6349636,8.3364685 L34.125,10.1616496 L34.125,8.25 C34.125,7.21446609 33.2855339,6.375 32.25,6.375 C31.2144661,6.375 30.375,7.21446609 30.375,8.25 L30.375,10.1616496 L26.8650364,8.3364685 C25.9462933,7.8587221 24.8142149,8.21622054 24.3364685,9.13496362 C23.8587221,10.0537067 24.2162205,11.1857851 25.1349636,11.6635315 L30.375,14.3883504 L30.375,15.8092177 L21.4830679,13.4382963 C20.4824916,13.1715052 19.4550873,13.7663557 19.1882963,14.7669321 C18.9215052,15.7675084 19.5163557,16.7949127 20.5169321,17.0617037 L30.375,19.6902331 L30.375,21 Z" id="Combined-Shape" fill="#000000" fill-rule="nonzero"></path>
    </g>
</svg>